# xmcd
# 
# Track frame offsets:
#     150
#     13882
#     27885
#     40452
#     52807
#     65142
#     75675
#     92345
#     109360
#     122790
#     141530
#     153250
#     166182
#     180315
#     198402
#     215257
#     230915
#     244660
#     259915
#     281207
# 
# Disc length: 4082
# 
# Revision: 5
# Processed by: cddbd v1.5.2PL0 Copyright (c) Steve Scherf et al.
# Submitted via: fre:ac v1.0.17
# 
DISCID=210ff014
DTITLE=Johnny Cash - Man In Black - The Very Best of [CD2]
DYEAR=2002
DGENRE=Country
TTITLE0=It Ain't Me, Babe
TTITLE1=Orange Blossom Special
TTITLE2=The One On The Right Is On The Left
TTITLE3=Jackson
TTITLE4=Folsom Prison Blues (Live)
TTITLE5=Daddy Sang Bass
TTITLE6=Girl From The North Country
TTITLE7=A Boy Named Sue (Live)
TTITLE8=If I Were A Carpenter
TTITLE9=Sunday Morning Coming Down (Live)
TTITLE10=Flesh And Blood
TTITLE11=Man In Black
TTITLE12=Ragged Old Flag
TTITLE13=One Piece At A Time
TTITLE14=(Ghost) Riders In The Sky
TTITLE15=Song Of The Patriot
TTITLE16=Highwayman
TTITLE17=The Night Hank Williams Came To Town
TTITLE18=The Wanderer
TTITLE19=Man In White
EXTD=YEAR: 2002
EXTT0=
EXTT1=
EXTT2=
EXTT3=
EXTT4=
EXTT5=
EXTT6=
EXTT7=
EXTT8=
EXTT9=
EXTT10=
EXTT11=
EXTT12=
EXTT13=
EXTT14=
EXTT15=
EXTT16=
EXTT17=
EXTT18=
EXTT19=
PLAYORDER=
